<mxfile host="app.diagrams.net" modified="2023-05-25T14:35:45.381Z" agent="Mozilla/5.0 (Windows NT 10.0; Win64; x64) AppleWebKit/537.36 (KHTML, like Gecko) Chrome/113.0.0.0 Safari/537.36" version="21.3.4" etag="4jCxcYv9sER2mN3LlLP4" type="github">
  <diagram name="페이지-1" id="ZxcSvBIF6fMq2YjAYgYf">
    <mxGraphModel>
      <root>
        <mxCell id="0" />
        <mxCell id="1" parent="0" />
      </root>
    </mxGraphModel>
  </diagram>
</mxfile>
